<?xml version="1.0" standalone="no"?>
<!DOCTYPE svg PUBLIC "-//W3C//DTD SVG 20010904//EN"
 "http://www.w3.org/TR/2001/REC-SVG-20010904/DTD/svg10.dtd">
<svg version="1.0" xmlns="http://www.w3.org/2000/svg"
 width="700.000000pt" height="700.000000pt" viewBox="0 0 700.000000 700.000000"
 preserveAspectRatio="xMidYMid meet">
<metadata>
Created by potrace 1.11, written by Peter Selinger 2001-2013
</metadata>
<g transform="translate(0.000000,700.000000) scale(0.100000,-0.100000)"
fill="#000000" stroke="none">
<path d="M2417 5493 c-9 -21 -32 -78 -50 -128 -19 -49 -74 -193 -122 -320 -48
-126 -92 -243 -99 -260 -16 -36 -51 -129 -201 -525 -64 -168 -126 -332 -139
-365 -30 -74 -38 -97 -42 -110 -4 -15 -184 -485 -199 -520 -7 -16 -29 -73 -48
-125 -32 -84 -124 -326 -177 -465 -11 -27 -35 -90 -54 -140 -19 -49 -45 -119
-59 -155 -14 -36 -39 -103 -57 -150 -18 -47 -66 -173 -107 -280 -41 -107 -88
-230 -104 -273 l-29 -77 281 2 281 3 145 410 c79 226 147 417 150 425 3 8 18
49 33 90 l27 75 885 3 885 2 76 -212 c41 -117 116 -330 167 -473 51 -143 98
-274 105 -292 l14 -32 275 1 c205 0 274 3 269 12 -4 6 -8 16 -9 21 -2 12 -62
172 -75 200 -11 24 -288 750 -299 785 -5 14 -22 59 -38 100 -16 41 -57 149
-91 240 -34 91 -66 174 -71 185 -8 18 -135 351 -195 510 -58 156 -327 863
-336 885 -6 14 -37 95 -70 180 -32 85 -114 301 -182 480 l-124 325 -300 3
-300 2 -16 -37z m342 -570 c13 -38 29 -81 36 -98 7 -16 17 -43 23 -60 6 -16
47 -127 90 -245 173 -464 495 -1338 512 -1385 10 -27 21 -58 25 -67 7 -17 -31
-18 -715 -18 -684 0 -722 1 -715 18 10 24 134 363 185 502 23 63 45 124 49
135 5 11 27 70 49 130 109 295 186 504 199 540 8 22 55 150 105 285 49 135 97
264 105 288 9 23 19 42 22 42 3 0 17 -30 30 -67z"/>
<path d="M5050 1935 l0 -335 278 2 277 3 0 333 1 332 -278 0 -278 0 0 -335z"/>
</g>
</svg>
